<svg width="30" height="30" viewBox="0 0 30 30" fill="none" xmlns="http://www.w3.org/2000/svg">
<path d="M26.2506 20.525C26.2503 20.525 26.25 20.5253 26.25 20.5256V24.945C26.2501 25.2615 26.1302 25.5662 25.9145 25.7977C25.6987 26.0293 25.4032 26.1703 25.0875 26.1925C24.5413 26.23 24.095 26.25 23.75 26.25C12.7038 26.25 3.75 17.2962 3.75 6.25C3.75 5.905 3.76875 5.45875 3.8075 4.9125C3.82965 4.59681 3.97073 4.30126 4.20225 4.08551C4.43378 3.86976 4.73853 3.74986 5.055 3.75H9.475C9.63005 3.74984 9.77962 3.80732 9.89466 3.91128C10.0097 4.01523 10.082 4.15823 10.0975 4.3125C10.1263 4.6 10.1525 4.82875 10.1775 5.0025C10.4259 6.73615 10.935 8.42229 11.6875 10.0038C11.8063 10.2538 11.7288 10.5525 11.5038 10.7125L10.1165 11.7038C9.35155 12.2504 9.05919 13.263 9.5133 14.0862C11.0001 16.7812 13.2203 19.0015 15.9155 20.4882C16.7385 20.9422 17.7509 20.65 18.2976 19.8854L19.2863 18.5025C19.3649 18.3925 19.4797 18.3136 19.6106 18.2796C19.7415 18.2455 19.8802 18.2585 20.0025 18.3162C21.5838 19.0673 23.2695 19.5751 25.0025 19.8225C25.1763 19.8475 25.405 19.875 25.69 19.9025C25.844 19.9183 25.9867 19.9907 26.0904 20.1057C26.194 20.2206 26.2513 20.3697 26.2513 20.5244C26.2513 20.5247 26.251 20.525 26.2506 20.525V20.525Z" fill="white"/>
</svg>