<svg width="18" height="16" viewBox="0 0 18 16" fill="none" xmlns="http://www.w3.org/2000/svg">
<path d="M9.00031 1.77415C10.9578 0.0166498 13.9828 0.0749833 15.8686 1.96415C17.7536 3.85415 17.8186 6.86415 16.0653 8.82748L8.99864 15.9042L1.93364 8.82748C0.180309 6.86415 0.246143 3.84915 2.13031 1.96415C4.01781 0.0774833 7.03698 0.0141498 9.00031 1.77415ZM14.6886 3.14165C13.4386 1.88998 11.422 1.83915 10.1136 3.01415L9.00114 4.01248L7.88781 3.01498C6.57531 1.83832 4.56281 1.88998 3.30948 3.14332C2.06781 4.38498 2.00531 6.37248 3.14948 7.68582L8.99948 13.545L14.8495 7.68665C15.9945 6.37248 15.932 4.38748 14.6886 3.14165Z" fill="#333333"/>
</svg>