<svg width="8" height="14" viewBox="0 0 8 14" fill="none" xmlns="http://www.w3.org/2000/svg">
<path d="M4 11.6668C4.552 11.6668 5 12.1148 5 12.6668C5 13.2188 4.552 13.6668 4 13.6668C3.448 13.6668 3 13.2188 3 12.6668C3 12.1148 3.448 11.6668 4 11.6668ZM4 0.333496C6.20933 0.333496 8 2.12416 8 4.3335C8 5.77683 7.498 6.52683 6.21733 7.6155C4.93267 8.70683 4.66667 9.19816 4.66667 10.3335H3.33333C3.33333 8.68416 3.858 7.87016 5.354 6.5995C6.36533 5.74016 6.66667 5.2895 6.66667 4.3335C6.66667 2.86016 5.47333 1.66683 4 1.66683C2.52667 1.66683 1.33333 2.86016 1.33333 4.3335V5.00016H0V4.3335C0 2.12416 1.79067 0.333496 4 0.333496Z" fill="white"/>
</svg>
